<!--?xml version="1.0" encoding="utf-8"?-->
<!-- Generator: Adobe Illustrator 22.1.0, SVG Export Plug-In . SVG Version: 6.00 Build 0)  -->
<svg version="1.1" id="_x36_" xmlns="http://www.w3.org/2000/svg" xmlns:xlink="http://www.w3.org/1999/xlink" x="0px" y="0px" viewBox="0 0 800 651.334" style="enable-background:new 0 0 800 651.334;" xml:space="preserve">
<style type="text/css">
	.st0{fill:#040000;}
	.st1{fill:#FFFFFF;}
</style>
<g>
	<path class="st0" d="M777.244,327.67c-1.696-13.08-3.68-28.287-8.449-41.561c6.625-2.34,12.416-6.506,17.086-12.371
		c12.387-15.51,14.073-39.93,10.413-56.05c-6.922-30.529-31.684-35.765-53.63-36.211c-8.242-26.425-37.456-101.004-108.996-119.88
		c-21.054-5.559-44.458-10.007-69.567-13.215c-27.986-3.59-52.054-4.854-67.316-5.295c-5.325-0.154-10.452-0.233-15.272-0.233
		c-8.964,0-16.63,0.272-21.57,0.774c-0.128,0.004-0.277,0.004-0.426,0.004c-6.644,0-24.425-5.518-43.247-11.375
		c-34.67-10.785-82.152-25.54-130.14-29.75c-6.674-0.585-13.526-0.878-20.368-0.878c-68.04,0-129.703,29.394-149.636,48.082
		c-12.694,3.724-51.28,19.07-85.364,74.139C-3.69,179.483-0.993,244.289,7.338,288.846c1.011,5.38,2.122,10.681,3.342,15.817
		c-10.085,28.447-2.102,77.967,4.988,121.913c3.154,19.586,6.149,38.115,6.367,49.083c-6.753,36.475,27.38,90.025,45.102,95.336
		c2.945,0.888,11.196,3.827,19.943,6.937c26.081,9.287,46.698,16.512,54.988,17.895c1.398,0.228,2.836,0.352,4.294,0.352
		c10.967,0,21.153-6.467,29.334-11.663c1.368-0.878,3.044-1.939,4.334-2.712c0.288,0.02,0.575,0.02,0.853,0.02
		c7.973,0,13.665-4.988,17.215-9.267c4.483-1.483,8.796-4.487,12.207-8.653c4.889-5.965,7.041-13.432,5.97-20.672
		c-0.693-25.105-24.643-30.257-39.32-32.274c-14.162-14.439-13.151-46.624-11.345-67.123c8.102,20.022,21.461,45.97,38.011,63.185
		c22.948,23.865,64.956,27.455,85.147,29.18c2.608,0.224,5.831,0.501,6.852,0.685c1.835,0.486,3.818,0.729,6.05,0.729
		c11.116,0,33.697-7.155,45.438-20.072c9.808-10.784,9.59-18.559,8.449-26.215c-0.297-1.974-0.535-3.546-0.346-5.53l0.069-0.932
		l-0.05-0.927c-1.15-19.764-19.02-24.142-28.61-26.487c-3.332-0.818-7.904-1.944-9.321-3.079
		c-3.333-2.657-5.672-10.457-8.627-20.325c-0.169-0.584-0.358-1.18-0.536-1.785c16.839,3.625,34.085,5.459,51.508,5.459
		c30.941,0,56.347-5.752,72.314-10.625c-0.229,21.073-0.874,56.179-2.787,79.047c-3.333,39.961,40.361,114.708,61.623,123.208
		c8.211,3.277,17.562,4.844,28.392,6.674c10.997,1.839,23.453,3.942,37.01,8.3c11.425,3.669,21.479,5.379,31.654,5.379
		c7.131,0,13.349-0.867,18.833-1.63c3.173-0.442,6.198-0.858,9.232-1.106c3.293,0.634,6.436,0.967,9.372,0.967
		c13.407,0,20.894-6.495,24.544-12.842c5.038-3.199,9.908-9.377,11.593-20.32c2.687-17.562-19.111-30.564-43.655-43.416
		c-1.884-0.982-4.145-2.172-5.266-2.807c-1.329-1.736-3.292-6.148-4.929-12.018c11.772,3.564,26.925,5.364,45.41,5.364
		c3.758,0,6.544-0.089,7.774-0.144c3.273,0.159,20.667,1.037,29.166,1.888c1.607,0.16,2.994,0.239,4.255,0.239
		c14.806,0,17.433-11.474,18.575-16.378c0.247-1.106,0.525-2.375,0.951-3.843c7.418-18.089-0.922-28.075-7.001-32.608
		c-1.022-0.867-2.261-2.042-3.56-3.287c-3.392-3.253-7.478-7.15-12.298-10.011c4.245-5.027,7.537-10.388,9.511-14.36
		c1.358-2.692,1.983-5.409,2.598-8.053c1.815-7.904,4.582-19.858,38.914-30.628c20.112-6.307,34.382-19.238,41.275-37.376
		c9.341-24.584,2.786-52.332-2.886-61.982C779.228,342.913,778.086,334.111,777.244,327.67z"></path>
	<path class="st1" d="M749.536,276.068c-21.024-16.154-31.386-40.818-29.026-56.6c1.705-11.37,7.705-20.736,12.426-26.612
		c-5.583-22.224-33.212-100.924-102.462-119.201c-22.501-5.936-45.895-10.065-67.97-12.892
		c-11.602,15.852-33.083,47.74-33.797,67.702c-0.972,27.401,8.806,36.202,0.972,52.843c-7.825,16.635-27.4,65.57-20.537,90.03
		c6.842,24.465,26.409,43.059,24.455,45.99c-1.944,2.945,2.945,36.211,0,46.977c-2.936,10.769-7.825,50.883,19.565,62.634
		c27.411,11.742,51.886,28.378,53.829,33.266c1.963,4.894,19.575,38.17,45.022,42.078c6.446,1.002,11.513,1.417,15.49,1.507
		c-0.476-1.021-0.189-2.444,1.15-4.438c7.815-1.964,16.62-13.705,20.537-21.529c3.918-7.835-0.972-29.359,48.941-45.018
		c49.911-15.659,37.178-71.431,31.317-81.225C763.648,341.93,765.463,296.085,749.536,276.068z"></path>
	<path class="st1" d="M392.677,230.237c1.974-32.294,32.3-124.278,72.423-153.637c13.288-9.733,23.522-16.397,31.327-21.039
		c-16.402-0.47-28.937-0.143-35.244,0.487c-19.566,1.949-97.85-34.249-176.144-41.101c-78.293-6.848-148.743,30.336-162.448,45.994
		c0,0-43.058,7.835-81.229,69.483C8.717,183.172,11.879,245.212,19.605,286.55c9.48,7.329,26.26,18.069,41.334,16.106
		c22.501-2.936,85.135-28.378,97.86-10.771c12.733,17.618,19.565,106.671,43.048,120.371c21.629,12.609,66.394,19.377,90.948,12.753
		c-1.13-3.407-2.381-6.997-3.838-10.794c60.83,19.576,114.143,8.677,139.649,0.868C364.733,401.134,390.843,260.643,392.677,230.237
		z"></path>
	<path class="st0" d="M562.96,276.227c-13.23-1.463-27.391-16.63-25.448-36.201c1.954-19.576,28.382-46,58.718-34.257
		c30.336,11.751,24.466,41.11,14.678,47.962C601.131,260.578,580.573,278.185,562.96,276.227z"></path>
	<path class="st0" d="M619.218,353.048c11.345,1.626,9.312,33.767-1.457,46.48c-10.77,12.729-16.63,27.401-34.253,20.553
		c-17.613-6.842-7.835-24.459,0.972-33.265c8.816-8.811,17.623-18.595,21.539-25.442
		C609.937,354.521,612.386,352.076,619.218,353.048z"></path>
	<path class="st0" d="M691.156,356.479c6.852-3.431,18.595-0.982,22.511,16.634c3.303,14.826,15.659,18.59,17.613,32.29
		c0.793,5.49-11.742,31.318-30.336,13.701C682.359,401.487,682.022,361.046,691.156,356.479z"></path>
	<path class="st0" d="M629.998,460.204c-2.449,0-3.916,3.431-0.981,4.894c2.935,1.473,11.265,9.298,22.025,9.298
		c0,0,2.439,7.824-0.992,8.806c-3.421,0.986-15.658,0.977-20.052-2.931c-4.412-3.918-2.449,2.931,1.469,4.889
		c3.906,1.959,31.803,11.256,44.526-0.486c2.44-2.444-0.981-3.431-4.889-0.982c-3.918,2.444-11.255,1.953-11.751-0.977
		c-0.487-2.936-1.478-6.362,0.972-6.852c2.459-0.486,12.723-3.917,16.154-7.334c3.431-3.431,5.375-7.833,1.457-7.833
		c-3.906,0-13.695,1.467-22.491,1.467C647.471,462.163,629.998,460.204,629.998,460.204z"></path>
	<path class="st0" d="M749.536,276.068c-0.218-0.273-0.416-0.561-0.645-0.813c33.282,5.875,40.124-33.271,35.236-54.805
		c-4.899-21.53-20.557-27.4-50.884-26.424c-0.09-0.352-0.198-0.769-0.307-1.17c-4.721,5.875-10.721,15.241-12.426,26.612
		C718.149,235.25,728.512,259.914,749.536,276.068z"></path>
	<path class="st0" d="M201.847,412.256c-23.483-13.7-30.316-102.754-43.048-120.371c-12.724-17.608-75.359,7.835-97.86,10.771
		c-15.074,1.963-31.854-8.777-41.334-16.106c1.309,6.976,2.738,13.393,4.145,19.035C7.119,341.798,34.53,441.615,34.53,476.85
		c-6.863,31.307,26.409,79.26,36.196,82.2c9.789,2.936,61.653,22.502,73.405,24.46c11.732,1.959,27.4-12.718,34.233-14.677
		c4.9,1.959,8.816-1.959,12.733-7.835c4.889,0.987,14.677-6.848,12.724-16.636c0-16.63-16.641-19.57-32.29-21.529
		c-28.392-22.512-17.623-82.206-16.651-97.854c0.982-15.659,12.733-19.577,14.677-8.806c1.974,10.764,18.595,56.758,43.07,82.2
		c24.455,25.442,79.265,24.46,86.107,26.419c6.854,1.958,29.364-4.895,39.142-15.654c9.788-10.765,3.918-13.701,4.899-24.465
		c-0.982-16.64-23.483-12.728-33.271-20.553c-8.33-6.664-10.294-19.705-16.709-39.112
		C268.241,431.634,223.476,424.866,201.847,412.256z"></path>
	<path class="st0" d="M606.991,460.204c-1.944-4.888-26.418-21.524-53.829-33.266c-27.39-11.751-22.501-51.865-19.565-62.634
		c2.945-10.765-1.944-44.032,0-46.977c1.954-2.931-17.613-21.525-24.455-45.99c-6.863-24.46,12.713-73.395,20.537-90.03
		c7.834-16.64-1.944-25.442-0.972-52.843c0.714-19.962,22.195-51.85,33.797-67.702c-24.752-3.173-47.819-4.681-66.077-5.203
		c-7.804,4.642-18.038,11.306-31.327,21.039c-40.124,29.359-70.449,121.343-72.423,153.637
		c-1.834,30.406-27.945,170.897,35.929,184.847c10.184-3.13,15.947-5.762,15.947-5.762s0,62.625-2.935,97.86
		c-2.946,35.23,39.142,104.712,53.828,110.578c14.668,5.876,37.179,5.876,64.579,14.686c27.401,8.806,40.124,2.931,56.755,1.949
		c21.529,4.889,23.493-8.801,23.493-8.801s6.842,0,8.805-12.723c1.964-12.718-38.169-30.336-44.03-34.253
		c-5.881-3.918-13.705-25.442-12.733-45.994c11.742,19.576,68.506,16.634,68.506,16.634s20.547,0.982,30.336,1.959
		c9.788,0.977,7.835-1.959,10.769-11.741c2.936-6.852,3.918-13.701-2.935-18.595c-5.881-4.888-13.716-14.682-21.54-14.682
		c-5.167,0-9.025-0.437-9.947-2.41c-3.977-0.09-9.044-0.505-15.49-1.507C626.566,498.374,608.955,465.098,606.991,460.204z"></path>
</g>
</svg>
